<svg width="101px" height="16px" viewBox="0 0 101 16" version="1.1" xmlns="http://www.w3.org/2000/svg" xmlns:xlink="http://www.w3.org/1999/xlink">
  <!-- Generator: Sketch 51.2 (57519) - http://www.bohemiancoding.com/sketch -->
  <desc>Created with Sketch.</desc>
  <defs></defs>
  <g id="Symbols" stroke="none" stroke-width="1" fill="none" fill-rule="evenodd">
    <g id="header" transform="translate(-100.000000, -41.000000)" fill="#000000" fill-rule="nonzero">
      <g id="iconoteka-logoArtboard-1" transform="translate(100.000000, 41.000000)">
        <path d="M15.0962997,13.9574468 C13.1875721,13.9574468 12.146448,12.7659574 12.146448,10.3829787 L12.146448,10.212766 C12.146448,8 13.3610928,6.63829787 15.0962997,6.63829787 C16.4844652,6.63829787 17.3520686,7.14893617 17.5255893,8.68085106 L19.9548789,8.68085106 C19.6078375,5.78723404 17.3520686,4.76595745 14.922779,4.76595745 C11.9729273,4.76595745 9.54363773,6.80851064 9.54363773,10.212766 L9.54363773,10.3829787 C9.54363773,13.787234 11.9729273,15.8297872 15.0962997,15.8297872 C18.0461513,15.8297872 19.9548789,14.1276596 20.1283996,11.5744681 L17.8726307,11.5744681 C17.5255893,13.106383 16.4844652,13.9574468 15.0962997,13.9574468 Z M27.2427477,4.76595745 C24.1193754,4.76595745 21.6900858,6.9787234 21.6900858,10.212766 L21.6900858,10.3829787 C21.6900858,13.6170213 24.1193754,15.8297872 27.2427477,15.8297872 C30.3661201,15.8297872 32.7954097,13.6170213 32.7954097,10.3829787 L32.7954097,10.212766 C32.7954097,6.9787234 30.5396407,4.76595745 27.2427477,4.76595745 Z M30.1925994,10.3829787 C30.1925994,12.5957447 29.1514752,13.9574468 27.2427477,13.9574468 C25.3340202,13.9574468 24.292896,12.5957447 24.292896,10.3829787 L24.292896,10.212766 C24.292896,8 25.5075408,6.63829787 27.2427477,6.63829787 C28.9779546,6.63829787 30.1925994,8 30.1925994,10.3829787 Z M41.2979233,4.76595745 C39.5627164,4.76595745 38.3480716,5.61702128 37.8275095,6.63829787 L37.8275095,4.93617021 L35.2246993,4.93617021 L35.2246993,15.6595745 L37.8275095,15.6595745 L37.8275095,9.36170213 C37.8275095,7.65957447 39.0421544,6.80851064 40.4303198,6.80851064 C41.992006,6.80851064 42.5125681,7.4893617 42.5125681,9.19148936 L42.5125681,15.6595745 L45.1153784,15.6595745 L45.1153784,8.85106383 C45.1153784,5.95744681 43.5536922,4.76595745 41.2979233,4.76595745 Z M53.0973299,4.76595745 C49.9739576,4.76595745 47.544668,6.9787234 47.544668,10.212766 L47.544668,10.3829787 C47.544668,13.6170213 49.9739576,15.8297872 53.0973299,15.8297872 C56.2207023,15.8297872 58.6499919,13.6170213 58.6499919,10.3829787 L58.6499919,10.212766 C58.6499919,6.9787234 56.2207023,4.76595745 53.0973299,4.76595745 Z M56.0471816,10.3829787 C56.0471816,12.5957447 55.0060575,13.9574468 53.0973299,13.9574468 C51.1886024,13.9574468 50.1474783,12.5957447 50.1474783,10.3829787 L50.1474783,10.212766 C50.1474783,8 51.3621231,6.63829787 53.0973299,6.63829787 C55.0060575,6.63829787 56.0471816,8 56.0471816,10.3829787 Z M64.0291331,12.4255319 L64.0291331,6.80851064 L66.4584227,6.80851064 L66.4584227,4.93617021 L64.0291331,4.93617021 L64.0291331,2.55319149 L61.4263228,2.55319149 L61.4263228,4.93617021 L60.0381574,4.93617021 L60.0381574,6.80851064 L61.4263228,6.80851064 L61.4263228,12.5957447 C61.4263228,14.6382979 62.467447,15.8297872 64.7232159,15.8297872 C65.4172986,15.8297872 66.1113814,15.6595745 66.4584227,15.4893617 L66.4584227,13.6170213 C66.1113814,13.787234 65.76434,13.787234 65.2437779,13.787234 C64.5496952,13.787234 64.0291331,13.2765957 64.0291331,12.4255319 Z M73.7462916,4.76595745 C70.6229192,4.76595745 68.3671503,6.9787234 68.3671503,10.212766 L68.3671503,10.3829787 C68.3671503,13.787234 70.6229192,15.8297872 73.9198122,15.8297872 C76.6961432,15.8297872 78.6048708,14.6382979 78.9519121,12.4255319 L76.3491018,12.4255319 C76.1755812,13.4468085 75.3079777,14.1276596 73.9198122,14.1276596 C72.0110847,14.1276596 70.9699606,12.9361702 70.9699606,10.893617 L78.9519121,10.893617 L78.9519121,10.0425532 C78.7783914,6.29787234 76.3491018,4.76595745 73.7462916,4.76595745 Z M70.9699606,9.19148936 C71.1434813,7.4893617 72.1846054,6.46808511 73.7462916,6.46808511 C75.3079777,6.46808511 76.3491018,7.31914894 76.3491018,9.19148936 L70.9699606,9.19148936 Z M90.4042774,4.93617021 L87.6279464,4.93617021 L83.8104913,9.70212766 L83.8104913,0 L81.207681,0 L81.207681,15.6595745 L83.8104913,15.6595745 L83.8104913,10.3829787 L87.9749878,15.6595745 L90.9248395,15.6595745 L86.4133016,9.87234043 L90.4042774,4.93617021 Z M96.8245428,4.76595745 C94.3952532,4.76595745 92.313005,5.78723404 92.1394843,8.34042553 L94.5687739,8.34042553 C94.7422946,7.31914894 95.2628566,6.63829787 96.6510221,6.63829787 C98.2127083,6.63829787 98.5597497,7.31914894 98.5597497,8.85106383 L98.5597497,9.36170213 L97.1715842,9.36170213 C94.0482118,9.36170213 91.6189222,10.212766 91.6189222,12.7659574 C91.6189222,14.9787234 93.1806084,16 95.2628566,16 C96.9980635,16 97.8656669,15.4893617 98.5597497,14.4680851 L98.5597497,15.8297872 L100.989039,15.8297872 L100.989039,8.68085106 C101.16256,5.61702128 99.2538324,4.76595745 96.8245428,4.76595745 Z M98.7332703,11.9148936 C98.7332703,13.2765957 97.5186255,14.1276596 96.13046,14.1276596 C94.9158152,14.1276596 94.3952532,13.6170213 94.3952532,12.5957447 C94.3952532,11.2340426 95.609898,10.893617 97.5186255,10.893617 L98.7332703,10.893617 L98.7332703,11.9148936 Z M4.16449646,3.23404255 C5.03209989,3.23404255 5.72618264,2.55319149 5.72618264,1.87234043 C5.72618264,1.0212766 5.03209989,0.510638298 4.16449646,0.510638298 C3.29689303,0.510638298 2.77633098,1.0212766 2.77633098,1.70212766 C2.77633098,2.55319149 3.29689303,3.23404255 4.16449646,3.23404255 Z M5.55266195,12.4255319 L5.55266195,4.93617021 L0,4.93617021 L0,6.80851064 L2.94985166,6.80851064 L2.94985166,12.5957447 C2.94985166,14.6382979 3.99097578,15.8297872 6.2467447,15.8297872 C6.94082744,15.8297872 7.63491018,15.6595745 7.98195156,15.4893617 L7.98195156,13.6170213 C7.63491018,13.787234 7.28786881,13.787234 6.76730675,13.787234 C5.89970332,13.787234 5.55266195,13.2765957 5.55266195,12.4255319 Z" id="Shape"></path>
      </g>
    </g>
  </g>
</svg>
