<svg width="148px" height="16px" viewBox="0 0 148 16" version="1.1" xmlns="http://www.w3.org/2000/svg" xmlns:xlink="http://www.w3.org/1999/xlink">
  <defs>
    <polygon id="path-1" points="0 0 147.3648 0 147.3648 15.5206 0 15.5206"></polygon>
  </defs>
  <g id="Symbols" stroke="none" stroke-width="1" fill="none" fill-rule="evenodd" opacity="0.6">
    <g id="Logo" transform="translate(0.000000, -5.472168)">
      <g id="Group-3" transform="translate(0.000000, 5.472168)">
        <mask id="mask-2" fill="white">
          <use xlink:href="#path-1"></use>
        </mask>
        <g id="Clip-2"></g>
        <path d="M60.1748,12.4376 L51.8748,0.2916 L50.2148,0.2916 L50.2148,15.2306 L51.8748,15.2306 L51.8748,3.0836 L60.1748,15.2306 L61.8348,15.2306 L61.8348,0.2906 L60.1748,0.2906 L60.1748,12.4376 Z M137.9258,9.4206 L140.6848,1.9666 L143.4438,9.4206 L137.9258,9.4206 Z M141.8348,0.2906 L139.5358,0.2906 L134.0048,15.2306 L135.7748,15.2306 L137.3418,10.9976 L144.0278,10.9976 L145.5948,15.2306 L147.3648,15.2306 L141.8348,0.2906 Z M128.7278,0.2906 L126.5268,0.2906 L119.9348,7.5996 L119.9348,0.2906 L118.2748,0.2906 L118.2748,15.2306 L119.9348,15.2306 L119.9348,9.9556 L122.0008,7.6846 L127.7578,15.2306 L129.7568,15.2306 L123.0768,6.5006 L128.7278,0.2906 Z M21.1648,13.8616 C18.8768,13.8616 17.0148,11.9996 17.0148,9.7106 L17.0148,5.8096 C17.0148,3.5216 18.8768,1.6606 21.1648,1.6606 C23.2628,1.6606 24.8198,3.0576 25.0798,5.0486 L26.7658,5.0486 C26.4918,2.1346 24.1758,-0.0004 21.1648,-0.0004 C17.9558,-0.0004 15.3548,2.6016 15.3548,5.8096 L15.3548,9.7106 C15.3548,12.9196 17.9558,15.5206 21.1648,15.5206 C24.2168,15.5206 26.5498,13.4356 26.7718,10.4716 L25.0918,10.4716 C24.8808,12.4856 23.3358,13.8616 21.1648,13.8616 Z M77.6048,9.7106 C77.6048,11.9996 75.7428,13.8616 73.4548,13.8616 C71.1668,13.8616 69.3048,11.9996 69.3048,9.7106 L69.3048,5.8096 C69.3048,3.5216 71.1668,1.6606 73.4548,1.6606 C75.7428,1.6606 77.6048,3.5216 77.6048,5.8096 L77.6048,9.7106 Z M73.4548,-0.0004 C70.2458,-0.0004 67.6448,2.6016 67.6448,5.8096 L67.6448,9.7106 C67.6448,12.9196 70.2458,15.5206 73.4548,15.5206 C76.6638,15.5206 79.2648,12.9196 79.2648,9.7106 L79.2648,5.8096 C79.2648,2.6016 76.6638,-0.0004 73.4548,-0.0004 Z M42.7448,9.7106 C42.7448,11.9996 40.8828,13.8616 38.5948,13.8616 C36.3068,13.8616 34.4448,11.9996 34.4448,9.7106 L34.4448,5.8096 C34.4448,3.5216 36.3068,1.6606 38.5948,1.6606 C40.8828,1.6606 42.7448,3.5216 42.7448,5.8096 L42.7448,9.7106 Z M38.5948,-0.0004 C35.3858,-0.0004 32.7848,2.6016 32.7848,5.8096 L32.7848,9.7106 C32.7848,12.9196 35.3858,15.5206 38.5948,15.5206 C41.8038,15.5206 44.4048,12.9196 44.4048,9.7106 L44.4048,5.8096 C44.4048,2.6016 41.8038,-0.0004 38.5948,-0.0004 Z M103.3348,8.5906 L110.8048,8.5906 L110.8048,6.9306 L103.3348,6.9306 L103.3348,1.9506 L111.3858,1.9506 L111.3858,0.2906 L101.6748,0.2906 L101.6748,15.2306 L111.6348,15.2306 L111.6348,13.5706 L103.3348,13.5706 L103.3348,8.5906 Z M0.2,1.9506 L3.935,1.9506 L3.935,13.5706 L0.2,13.5706 L0.2,15.2306 L3.935,15.2306 L5.595,15.2306 L9.33,15.2306 L9.33,13.5706 L5.595,13.5706 L5.595,1.9506 L9.33,1.9506 L9.33,0.2906 L0.2,0.2906 L0.2,1.9506 Z M84.2448,1.9506 L89.2248,1.9506 L89.2248,15.2306 L90.8848,15.2306 L90.8848,1.9506 L95.8648,1.9506 L95.8648,0.2906 L84.2448,0.2906 L84.2448,1.9506 Z" id="Fill-1" fill="#000000" mask="url(#mask-2)"></path>
      </g>
    </g>
  </g>
</svg>
